<?xml version="1.0" encoding="utf-8"?>
<!-- Generator: Adobe Illustrator 18.1.1, SVG Export Plug-In . SVG Version: 6.00 Build 0)  -->
<svg version="1.1" id="Layer_1" xmlns="http://www.w3.org/2000/svg" xmlns:xlink="http://www.w3.org/1999/xlink" x="0px" y="0px"
	 viewBox="0 0 225 67" enable-background="new 0 0 225 67" xml:space="preserve">
<rect x="62.8" y="2.8" width="99.3" height="61.3"/>
<line stroke="#FFFFFF" stroke-width="2" x1="112.5" y1="8.3" x2="112.5" y2="58.7"/>
<line fill="none" stroke="#FFFFFF" stroke-width="2" x1="71.8" y1="20.3" x2="104.8" y2="20.3"/>
<line fill="none" stroke="#FFFFFF" stroke-width="2" x1="71.8" y1="33.5" x2="104.8" y2="33.5"/>
<line fill="none" stroke="#FFFFFF" stroke-width="2" x1="71.8" y1="46.7" x2="104.8" y2="46.7"/>
<path fill="#FFFFFF" d="M155.1,12.7c0,0.5,0.4,0.9,0.9,0.9v1.8c-0.5,0-0.9,0.4-0.9,0.9c0,0.5,0.4,0.9,0.9,0.9v1.8
	c-0.5,0-0.9,0.4-0.9,0.9c0,0.5,0.4,0.9,0.9,0.9v3.5h-3.5c0-0.5-0.4-0.9-0.9-0.9c-0.5,0-0.9,0.4-0.9,0.9H149c0-0.5-0.4-0.9-0.9-0.9
	s-0.9,0.4-0.9,0.9h-1.8c0-0.5-0.4-0.9-0.9-0.9c-0.5,0-0.9,0.4-0.9,0.9h-3.5v-3.5c0.5,0,0.9-0.4,0.9-0.9c0-0.5-0.4-0.9-0.9-0.9v-1.8
	c0.5,0,0.9-0.4,0.9-0.9c0-0.5-0.4-0.9-0.9-0.9v-1.8c0.5,0,0.9-0.4,0.9-0.9c0-0.5-0.4-0.9-0.9-0.9V8.3h3.5c0,0.5,0.4,0.9,0.9,0.9
	c0.5,0,0.9-0.4,0.9-0.9h1.8c0,0.5,0.4,0.9,0.9,0.9s0.9-0.4,0.9-0.9h1.8c0,0.5,0.4,0.9,0.9,0.9c0.5,0,0.9-0.4,0.9-0.9h3.5v3.5
	C155.5,11.9,155.1,12.2,155.1,12.7z"/>
</svg>
